<svg xmlns="http://www.w3.org/2000/svg" width="60" height="28" fill="none"><path fill="#0CBC7C" d="M8.142 5.798c.603-.28 1.125-.839 1.851-.765.4-.327.907-.614 1.441-.571.503-.687 1.29-1.319 2.206-1.2.349-.238.767-.33 1.183-.345.702-.713 1.97-1.126 2.831-.464a1.7 1.7 0 0 1 .463-.096q.21-.015.415.029c.605-.25 1.36-.412 1.933-.002.748-.314 1.76-.32 2.326.34.979-.364 2.312-.124 2.767.908.371-.17.761-.3 1.173-.308q.24.07.321-.213c.388-.425.92-.724 1.493-.806.183-.023.371-.016.547-.092.535-.742 1.485-1.215 2.404-1.093.655-.48 1.65-.71 2.373-.247.408-.154.867-.201 1.282-.048q.054.06.103.009c.465-.25 1.044-.355 1.55-.17.125.015.306-.082.403-.107.64-.17 1.46-.065 1.86.517.333-.07.67.003.97.144.202.014.397.087.566.194.874-.346 1.527-.08 2.172.526.414.109.92.09 1.297.298.285-.036.584.007.844.131.573-.07 1.266.138 1.532.688.268.025.51.06.782.004.45-.009.939.126 1.248.47q.064.162.241.106c.454.074.916.225 1.231.574q.055.194.24.184c.413.107.827.375 1.007.771.418.19.75.615.748 1.084.143.135.276.283.336.473q-.013.123.104.144c.103.065.186.07.305.123.23.095.398.27.537.47.23.115.431.31.509.559.064.204.02.083.156.252l.075.114c.435.03.897.225 1.103.628.404.229.708.678.583 1.153l.118.092q.08.069.13.163c.789-.002 1.655.655 1.468 1.508.421.166.718.605.67 1.06q-.039.089.09.07c.33.106.635.365.727.71.05.19.002.116.124.271.7.748-.285 1.713-1.107 1.672a1.3 1.3 0 0 1-.877-.307c-.11-.087-.144-.083-.298-.14-.416-.13-.79-.518-.755-.979-.438-.07-.89-.36-1.007-.811-.048-.192-.026-.087-.286-.175-.731-.203-1.19-1.029-.84-1.733q.045-.038-.003-.066-.045-.162-.217-.153c-.312-.058-.618-.208-.813-.465-.08-.105-.085-.193-.19-.258a1 1 0 0 1-.464-.911c-.206-.24-.58-.196-.8-.433-.214-.275-.573-.324-.735-.65-.064-.116-.068-.179-.19-.24a1.66 1.66 0 0 1-.682-.273c-.479 0-.978-.162-1.3-.53-.422-.113-.847-.375-1.02-.792-.414-.1-.736-.393-.952-.751-.43-.046-.863-.247-1.1-.624-.182-.064-.305-.255-.514-.135-.246.03-.484.038-.728-.015a1.46 1.46 0 0 1-.756-.405q-.056-.104-.188-.095a1.16 1.16 0 0 1-.48-.301q-.069-.143-.236-.135a1.1 1.1 0 0 1-.428-.262c-.38-.212-.729.032-1.119.072-.46.041-.982-.077-1.283-.451-.185.043-.376.04-.565.018-.326-.056-.688.033-.987-.169-.651.33-1.523.398-2.12-.078-.368.08-.778.051-1.112-.13-.328.172-.71.262-1.08.22-.49.452-1.183.737-1.856.674-.561.459-1.338.724-2.058.56a2.5 2.5 0 0 1-1.202.842l.118.15q.076.129.132.266c.769-.134 1.705.254 1.893 1.067.35.11.6.383.79.673.462.256.793.718.775 1.26q-.122.219.055.312c.186.113.355.27.435.476.212.032.421.11.594.238 1.389-.035 2.467 1.316 1.905 2.642q-.264.297.108.26c1.178.257 1.727 1.425 1.429 2.544q-.075.323-.233.615c-.01.094-.007.147.063.203.668.559.605 1.622.23 2.33q-.15.27-.36.495c-.205.178-.132.463-.267.68.07.35-.046.721-.238 1.014.317 1.335-1.048 2.053-1.797 2.88a3.5 3.5 0 0 1-.677.479c-.247.127-.246.054-.368.23a1.9 1.9 0 0 1-.54.513c-.147.093-.126.157-.255.336-.109.15-.245.301-.373.437a2.97 2.97 0 0 1-1.644.889c-.652.423-1.506.618-2.249.331-.27.128-.577.202-.876.19a2.42 2.42 0 0 1-1.538.404c-.24-.011-.108-.017-.402.072-.966.318-2.373.016-2.637-1.103-1.204.215-2.571-.596-2.563-1.907-.01-.492.133-.248-.128-.519-.377-.385-.483-.99-.324-1.498q.073-.127-.064-.239a4 4 0 0 1-.128-.49q.043-.273-.266-.264c-.93-.395-1.073-1.584-.59-2.383.269-.143-.055-.384.004-.611l-.064-.052a1.1 1.1 0 0 1-.232-.324c-1.669-.637-1.28-2.834-.107-3.78a.34.34 0 0 0 .2-.327c-.005-.376.045-.768.26-1.091-.544-1.02.132-2.247.994-2.859q.257-.03.177-.176c-.241-1.117.374-2.27 1.277-2.915q.31-.115-.115-.273l-.21-.244q-.048-.345-.338-.223c-.594.033-1.258-.214-1.563-.747-.414.053-.871-.038-1.19-.32-.192.039-.403-.061-.514.157-.621.51-1.556.792-2.314.44a2 2 0 0 1-.873.287c-.524.463-1.285.732-1.97.51a2.6 2.6 0 0 1-1.181.744c-.308.527-.847.76-1.351 1.023-.297.226-.65.39-1.023.43a2 2 0 0 1-.525.55 2.2 2.2 0 0 1-1.007.982.54.54 0 0 0-.316.176q-.091.035-.05.132c-.029.702-.475 1.364-1.061 1.733q-.176.048-.186.234c-.15.395-.394.517-.585.776a2 2 0 0 1-.89.938c-.094.23-.206.445-.314.669-.122.19-.295.333-.298.576-.02.413-.283.746-.423 1.12-.011.436-.304.767-.518 1.122-.137.221-.263.416-.488.558-.664.444-1.262 0-1.403-.707-.029-.262.065-.466.158-.7.025-.235.19-.423.297-.614.126-.248.105-.53.223-.781.132-.235.265-.478.429-.694.045-.456.305-.858.56-1.226-.15-.643.365-1.108.538-1.676.098-.224.247-.418.412-.598q.199-.075.19-.256c.132-.787.76-1.456 1.5-1.723q.223.006.262-.217a.17.17 0 0 0 .06-.148c.104-.597.523-1.098 1.03-1.407.252-.39.641-.689 1.081-.838.235-.42.538-.793.957-1.044m24.879 13.65c-.304-.452-.487-1.016-.363-1.56q.239-.334-.176-.388c-.937-.58-1.361-1.753-.8-2.745-1.255-.133-2.045-1.53-1.492-2.67q-.013-.054-.024-.109.069-.183-.062-.285c-.152-.138-.286-.304-.332-.509a1.53 1.53 0 0 1-1.373-.907 1.2 1.2 0 0 1-.332-.265l-.142-.193c-.627-.097-1.219-.529-1.325-1.184a1.62 1.62 0 0 1-1.16-.447q-.123-.287-.208.032c-.09.184-.346.285-.33.503-.18.952-.95 1.69-1.768 2.137.127.878-.298 1.76-.981 2.304.002.313-.11.627-.273.891.731.616.71 1.737.275 2.52-.152.34-.487.541-.561.91q.072.165.083.346c1.082.31 1.373 1.66.77 2.53q.084.132.172.261.026.053.054.104c.439.077.886.334 1.085.745 1.09-.004 2.144.906 2.04 2.041.527.049 1.079.282 1.372.74q.161.023.306.098c.261.01.335-.187.514-.34.248-.21.547-.396.854-.503.214-.074.141-.084.41-.265.46-.314.99-.445 1.53-.536a.44.44 0 0 0 .388-.1c.172-.087.125-.052.224-.21.151-.265.37-.474.376-.796a2.4 2.4 0 0 1 1.043-1.424c.182-.063.174-.301.3-.434.135-.095.118-.201-.094-.293"/></svg>