<svg xmlns="http://www.w3.org/2000/svg" width="60" height="28" fill="none"><path fill="#0CBC7C" d="M8.142 22.506c.603.281 1.125.839 1.851.765.4.328.907.614 1.441.572.503.687 1.29 1.318 2.206 1.199.349.238.767.33 1.183.346.702.713 1.97 1.125 2.831.464q.226.08.463.095.21.015.415-.029c.605.25 1.36.413 1.933.002.748.314 1.76.32 2.326-.339.979.363 2.312.124 2.767-.91.371.17.761.301 1.173.31q.24-.07.321.213c.388.424.92.724 1.493.805.183.024.371.016.547.092.535.742 1.485 1.215 2.404 1.093.655.48 1.65.71 2.373.247.408.154.867.202 1.282.049q.054-.06.103-.01c.465.25 1.044.356 1.55.17.125-.015.306.082.403.108.64.17 1.46.065 1.86-.517.333.07.67-.003.97-.145.202-.013.397-.087.566-.194.874.346 1.527.08 2.172-.525.414-.11.92-.09 1.297-.299a1.5 1.5 0 0 0 .844-.13c.573.07 1.266-.138 1.532-.688.268-.026.51-.06.782-.005.45.009.939-.126 1.248-.47q.064-.16.241-.106c.454-.074.916-.224 1.231-.573q.055-.194.24-.185c.413-.106.827-.374 1.007-.77.418-.19.75-.615.748-1.084.143-.135.276-.283.336-.473q-.013-.124.104-.145c.103-.065.186-.07.305-.122.23-.096.398-.27.537-.47.23-.115.431-.31.509-.56.064-.203.02-.082.156-.251l.075-.115c.435-.03.897-.224 1.103-.628.404-.229.708-.677.583-1.153l.118-.091a.6.6 0 0 0 .13-.163c.789.002 1.655-.655 1.468-1.51.421-.165.718-.604.67-1.059q-.039-.088.09-.07c.33-.106.635-.365.727-.709.05-.191.002-.116.124-.271.7-.748-.285-1.713-1.107-1.673a1.3 1.3 0 0 0-.877.307c-.11.087-.144.083-.298.14-.416.13-.79.519-.755.98-.438.069-.89.36-1.007.81-.048.193-.026.087-.286.176-.731.203-1.19 1.028-.84 1.733q.045.038-.003.065-.045.163-.217.154c-.312.058-.618.208-.813.464-.08.105-.085.194-.19.259a1 1 0 0 0-.464.91c-.206.24-.58.197-.8.433-.214.275-.573.324-.735.65-.064.116-.068.179-.19.24a1.66 1.66 0 0 0-.682.273c-.479 0-.978.162-1.3.531-.422.112-.847.374-1.02.791-.414.1-.736.393-.952.752-.43.046-.863.247-1.1.624-.182.063-.305.254-.514.135a2.1 2.1 0 0 0-.728.014 1.46 1.46 0 0 0-.756.405q-.056.104-.188.095c-.177.06-.352.162-.48.302q-.069.142-.236.135c-.163.049-.306.145-.428.261-.38.212-.729-.032-1.119-.072-.46-.04-.982.078-1.283.451a1.7 1.7 0 0 0-.565-.017c-.326.056-.688-.034-.987.168-.651-.33-1.523-.398-2.12.078-.368-.08-.778-.051-1.112.13a1.9 1.9 0 0 0-1.08-.22c-.49-.452-1.183-.737-1.856-.674-.561-.458-1.338-.724-2.058-.559a2.5 2.5 0 0 0-1.202-.842l.118-.15q.076-.129.132-.267c.769.134 1.705-.253 1.893-1.067.35-.11.6-.382.79-.673.462-.256.793-.718.775-1.259q-.122-.219.055-.312c.186-.113.355-.27.435-.476.212-.033.421-.11.594-.238 1.389.034 2.467-1.316 1.905-2.642q-.264-.297.108-.26c1.178-.258 1.727-1.425 1.429-2.544a2.4 2.4 0 0 0-.233-.616c-.01-.094-.007-.147.063-.203.668-.558.605-1.621.23-2.33a2.4 2.4 0 0 0-.36-.494c-.205-.179-.132-.464-.267-.68.07-.35-.046-.722-.238-1.015.317-1.334-1.048-2.052-1.797-2.88a3.5 3.5 0 0 0-.677-.478c-.247-.127-.246-.054-.368-.23a1.9 1.9 0 0 0-.54-.513c-.147-.093-.126-.158-.255-.336a5 5 0 0 0-.373-.437 2.97 2.97 0 0 0-1.644-.89c-.652-.422-1.506-.617-2.249-.331a1.9 1.9 0 0 0-.876-.19 2.42 2.42 0 0 0-1.538-.403c-.24.01-.108.016-.402-.073-.966-.317-2.373-.016-2.637 1.104-1.204-.215-2.571.596-2.563 1.906-.01.493.133.249-.128.52-.377.384-.483.99-.324 1.498q.073.126-.064.238a4 4 0 0 0-.128.49q.043.273-.266.265c-.93.394-1.073 1.583-.59 2.382.269.144-.055.385.004.612l-.064.052a1.1 1.1 0 0 0-.232.323c-1.669.637-1.28 2.834-.107 3.78q.199.097.2.327c-.005.377.045.768.26 1.092-.544 1.02.132 2.246.994 2.858q.257.03.177.176c-.241 1.117.374 2.27 1.277 2.916q.31.115-.115.272l-.21.245q-.048.343-.338.222c-.594-.033-1.258.215-1.563.748-.414-.053-.871.038-1.19.32-.192-.04-.403.06-.514-.158-.621-.51-1.556-.791-2.314-.439a2 2 0 0 0-.873-.288c-.524-.462-1.285-.731-1.97-.51a2.6 2.6 0 0 0-1.181-.744c-.308-.527-.847-.76-1.351-1.023a2.07 2.07 0 0 0-1.023-.429 2 2 0 0 0-.525-.55 2.2 2.2 0 0 0-1.007-.983.54.54 0 0 1-.316-.175q-.091-.034-.05-.133c-.029-.702-.475-1.364-1.061-1.733q-.176-.047-.186-.234c-.15-.394-.394-.517-.585-.776a2 2 0 0 0-.89-.937c-.094-.23-.206-.446-.314-.67-.122-.19-.295-.333-.298-.576-.02-.413-.283-.746-.423-1.119-.011-.436-.304-.768-.518-1.123-.137-.22-.263-.415-.488-.558-.664-.443-1.262.001-1.403.708-.029.261.065.465.158.7.025.234.19.422.297.614.126.247.105.53.223.78.132.235.265.479.429.694.045.456.305.858.56 1.226-.15.644.365 1.108.538 1.677a2.2 2.2 0 0 0 .412.598q.199.075.19.256c.132.786.76 1.456 1.5 1.723q.223-.008.262.216a.17.17 0 0 1 .06.149c.104.596.523 1.097 1.03 1.407.252.39.641.688 1.081.837.235.42.538.793.957 1.044M33.02 8.857c-.304.452-.487 1.016-.363 1.56q.239.333-.176.388c-.937.579-1.361 1.752-.8 2.744-1.255.133-2.045 1.53-1.492 2.67q-.013.054-.024.109.069.184-.062.285c-.152.139-.286.305-.332.51a1.53 1.53 0 0 0-1.373.906 1.2 1.2 0 0 0-.332.265l-.142.193c-.627.097-1.219.529-1.325 1.184a1.62 1.62 0 0 0-1.16.448q-.123.287-.208-.033c-.09-.184-.346-.285-.33-.503-.18-.951-.95-1.69-1.768-2.136.127-.879-.298-1.76-.981-2.305a1.7 1.7 0 0 0-.273-.89c.731-.617.71-1.738.275-2.52-.152-.34-.487-.542-.561-.91q.072-.165.083-.347c1.082-.31 1.373-1.66.77-2.53q.084-.132.172-.261.026-.053.054-.104c.439-.076.886-.333 1.085-.745 1.09.004 2.144-.906 2.04-2.04.527-.05 1.079-.282 1.372-.74a1 1 0 0 0 .306-.098c.261-.011.335.186.514.34.248.21.547.395.854.503.214.073.141.083.41.265.46.313.99.445 1.53.536a.44.44 0 0 1 .388.1c.172.086.125.051.224.209.151.265.37.474.376.797.144.58.535 1.104 1.043 1.423.182.063.174.302.3.435.135.094.118.2-.094.292"/></svg>